<svg xmlns="http://www.w3.org/2000/svg" viewBox="0 0 198.93 198.54"><defs><style>.cls-1{fill:#212347;}.cls-2{fill:#1d1d1b;}.cls-3{fill:#68c8f0;}.cls-4{fill:none;}</style></defs><g id="Capa_2" data-name="Capa 2"><g id="LogoSimple"><path class="cls-1" d="M134.84,99.1A35.54,35.54,0,1,1,99.3,63.56v7.93a27.62,27.62,0,0,0-24.53,40.29h49.07a27.46,27.46,0,0,0,3.07-12.68Z"/><path class="cls-1" d="M67.83,152.93a61.68,61.68,0,0,0,10.47,4.8l-.58,5.34-.13,1.2a9,9,0,0,0,.6,3.63,9.14,9.14,0,0,0,7.4,5.83l.34,0,8.29.9,1.78.2a9.16,9.16,0,0,0,9.1-7.58l.13-1.22.55-5a60.65,60.65,0,0,0,10.15-1.91l2.43,4.59s0,0,0,0l.6,1.13a9.14,9.14,0,0,0,11.89,3.34l.2-.11,7.48-4,1.63-.86h0A9.19,9.19,0,0,0,143.45,152l-.58-1.07-2.59-4.9a62.82,62.82,0,0,0,7.5-7.8l4.5,2.1,1.2.56A9.16,9.16,0,0,0,165,136.15l3.6-7.72v0l.75-1.61a9.15,9.15,0,0,0-4.23-11l-1.11-.51-4.11-1.92a62.31,62.31,0,0,0,1.63-14.22H149.11A49.81,49.81,0,1,1,99.3,49.29V36.84A62.12,62.12,0,0,0,84,38.73l-1.55-3.12-.56-1.12A9.15,9.15,0,0,0,70,30.9l-.18.1-7.49,3.73-1.71.86a9,9,0,0,0-2.42,2.27,9.16,9.16,0,0,0-1.09,9L57.69,48l1.68,3.37A62.89,62.89,0,0,0,50,61.05l-4.44-2-1.21-.53a9,9,0,0,0-3.6-.52A9.14,9.14,0,0,0,33,63.29a1.3,1.3,0,0,0-.08.17l-3.43,7.75-.75,1.68a8.94,8.94,0,0,0-.44,3.36,9.14,9.14,0,0,0,4.89,7.61l1.05.46,4.17,1.85a61.68,61.68,0,0,0-1.3,10.6l-5,.93h0l-1.27.23a9.18,9.18,0,0,0-6.7,10.58l1.54,8.3.33,1.81a9.16,9.16,0,0,0,9.82,6.53h0l1.25-.23,5.17-1a61.82,61.82,0,0,0,5.63,10.18L44.18,138h0l-.92,1a8.93,8.93,0,0,0-1.71,3.21A9.17,9.17,0,0,0,44,151.4l.12.11,6,5.76,1.33,1.26a9,9,0,0,0,3,1.54,9.16,9.16,0,0,0,8.81-2l.83-.87L68,153.1"/><rect class="cls-2" x="65.76" y="111.28" width="0.33" height="1"/><polygon class="cls-3" points="83.63 111.77 83.63 89.79 92.02 86.3 92.02 111.77 83.63 111.77"/><polygon class="cls-3" points="94.95 111.77 95.1 82.81 103.5 79.32 103.5 111.77 94.95 111.77"/><polygon class="cls-3" points="107.43 111.77 106.87 89.79 115.26 86.3 115.66 111.78 107.43 111.77"/><path class="cls-3" d="M99.3,148.76a49.82,49.82,0,0,1,0-99.63V63.41a35.57,35.57,0,1,0,35.54,35.53h14.28A49.83,49.83,0,0,1,99.3,148.76Z"/><path class="cls-3" d="M142.13,99.92h-7.41a.5.5,0,0,1-.5-.5V67.86a.5.5,0,0,1,.5-.5h7.41a.5.5,0,0,1,.5.5V99.42A.5.5,0,0,1,142.13,99.92Zm-6.91-1h6.41V68.36h-6.41Z"/><rect class="cls-3" x="134.72" y="94.9" width="7.41" height="1"/><rect class="cls-3" x="134.72" y="91.03" width="7.41" height="1"/><rect class="cls-3" x="134.72" y="87.1" width="7.41" height="1"/><rect class="cls-3" x="135.08" y="79.23" width="7.41" height="1"/><rect class="cls-3" x="135.17" y="75.25" width="7.41" height="1"/><rect class="cls-3" x="134.51" y="71.4" width="7.41" height="1"/><rect class="cls-3" x="134.95" y="83.13" width="7.13" height="1"/><path class="cls-3" d="M145.73,68.36h-3.6v-1h3.1V52.1h1V67.86A.5.5,0,0,1,145.73,68.36Z"/><path class="cls-3" d="M134.16,68.45a4.66,4.66,0,0,1-3.53-3.89V52.36h1V64.49a3.64,3.64,0,0,0,2.76,3Z"/><path class="cls-3" d="M160.09,52.67H106.37a.51.51,0,0,1-.36-.15.52.52,0,0,1-.14-.36L106,48a.51.51,0,0,1,.5-.49h53.58a.5.5,0,0,1,.5.5v4.13A.5.5,0,0,1,160.09,52.67Zm-53.2-1h52.7V48.54H107Z"/><rect class="cls-3" x="109.46" y="48.14" width="1" height="4.04"/><rect class="cls-3" x="113.04" y="48.25" width="1" height="4.04"/><rect class="cls-3" x="116.56" y="48.23" width="1" height="4.04"/><rect class="cls-3" x="120" y="48.23" width="1" height="4.04"/><rect class="cls-3" x="123.71" y="48.23" width="1" height="4.04"/><rect class="cls-3" x="127.37" y="48.23" width="1" height="4.04"/><rect class="cls-3" x="130.92" y="48.23" width="1" height="4.04"/><rect class="cls-3" x="145.23" y="48.23" width="1" height="4.04"/><rect class="cls-3" x="148.81" y="48.23" width="1" height="4.04"/><rect class="cls-3" x="152.33" y="48.23" width="1" height="4.04"/><rect class="cls-3" x="155.96" y="48.23" width="1" height="4.04"/><path class="cls-3" d="M142.63,52.27h-1v-4l-3.08-7.65-3.08,7.65v4h-1v-4a.41.41,0,0,1,0-.19l3.57-8.9a.52.52,0,0,1,.93,0l3.58,8.9a.41.41,0,0,1,0,.19Z"/><path class="cls-3" d="M160.21,99.43l-.62-51.05-21.07-8.53-31.88,8.68-.26-1,32-8.72a.51.51,0,0,1,.32,0l21.54,8.72a.51.51,0,0,1,.31.46l.62,51.37Z"/><rect class="cls-3" x="105.87" y="52.17" width="1" height="9.81"/><path class="cls-3" d="M106.51,67.88a3.39,3.39,0,1,1,3.25-3.39A3.33,3.33,0,0,1,106.51,67.88Zm0-5.78a2.39,2.39,0,1,0,2.25,2.39A2.33,2.33,0,0,0,106.51,62.1Z"/><path class="cls-3" d="M105.92,71.5c-.71,0-1.34-1-1.86-1.94l.88-.48a5.39,5.39,0,0,0,.92,1.36,9.15,9.15,0,0,0,.15-3l1-.08c.13,1.73.09,3.85-.87,4.13A.83.83,0,0,1,105.92,71.5Z"/><path class="cls-3" d="M141.92,64.46h-6.69a.5.5,0,0,1-.5-.5V56.19a.5.5,0,0,1,.5-.5h6.69a.5.5,0,0,1,.5.5V64A.5.5,0,0,1,141.92,64.46Zm-6.19-1h5.69V56.69h-5.69Z"/><path class="cls-4" d="M198.93,198.54H0V0H198.93ZM1,197.54H197.93V1H1Z"/></g></g></svg>