<svg xmlns="http://www.w3.org/2000/svg" viewBox="0 0 564.65 207.29"><defs><style>.cls-1{fill:#212347;}.cls-2{fill:#1d1d1b;}.cls-3{fill:#68c8f0;}.cls-4{fill:none;}</style></defs><g id="Capa_2" data-name="Capa 2"><g id="Logo_Completo" data-name="Logo Completo"><path class="cls-1" d="M150.07,97a39.25,39.25,0,1,1-39.25-39.25v8.76A30.5,30.5,0,0,0,83.73,111h54.19a30.29,30.29,0,0,0,3.4-14Z"/><path class="cls-1" d="M76.07,156.47a68.41,68.41,0,0,0,11.56,5.3l-.64,5.9L86.85,169a9.86,9.86,0,0,0,.66,4,10.11,10.11,0,0,0,8.18,6.44l.36,0,9.16,1,2,.21a10.11,10.11,0,0,0,10-8.36l.15-1.36.6-5.55a67,67,0,0,0,11.21-2.11l2.68,5.07,0,0,.66,1.24a10.08,10.08,0,0,0,13.13,3.69,1.19,1.19,0,0,0,.22-.12l8.26-4.37,1.8-1h0a10,10,0,0,0,2.64-2.59,10.12,10.12,0,0,0,1-9.93L159,154.2l-2.87-5.41a68.86,68.86,0,0,0,8.29-8.61l5,2.31,1.33.62a10.1,10.1,0,0,0,12.76-5.17l4-8.53v0l.83-1.79a9.87,9.87,0,0,0,.56-3.7,10.1,10.1,0,0,0-5.23-8.49l-1.22-.57-4.55-2.12a68.83,68.83,0,0,0,1.8-15.7H165.84a55,55,0,1,1-55-55V28.26a69.07,69.07,0,0,0-16.88,2.08L92.22,26.9l-.61-1.24a10.12,10.12,0,0,0-13.13-4l-.21.11L70,25.93l-1.89.94a10.13,10.13,0,0,0-3.87,12.41l.62,1.25,1.86,3.72A69.2,69.2,0,0,0,56.39,55l-4.91-2.17-1.33-.59a9.92,9.92,0,0,0-4-.58,10.09,10.09,0,0,0-8.6,5.81,1.11,1.11,0,0,0-.09.19l-3.79,8.56-.82,1.85a9.75,9.75,0,0,0-.49,3.71,10.08,10.08,0,0,0,5.4,8.4l1.16.52,4.6,2a69.3,69.3,0,0,0-1.43,11.7l-5.52,1h0l-1.41.26a10.11,10.11,0,0,0-7.39,11.68l1.69,9.17.37,2a10,10,0,0,0,1.69,3.32,10.12,10.12,0,0,0,9.15,3.89h0l1.38-.26,5.7-1A69.15,69.15,0,0,0,54,135.73L50,140h0l-1,1.07A10.25,10.25,0,0,0,47,144.59a10.1,10.1,0,0,0,2.7,10.18l.13.13,6.69,6.36L58,162.65a10.1,10.1,0,0,0,13-.55l.92-1,4.26-4.47"/><rect class="cls-2" x="73.78" y="110.52" width="0.37" height="1"/><polygon class="cls-3" points="93.52 111.01 93.52 86.73 102.79 82.88 102.79 111.01 93.52 111.01"/><polygon class="cls-3" points="106.02 111.01 106.19 79.03 115.46 75.17 115.46 111.01 106.02 111.01"/><polyline class="cls-3" points="150.07 97.02 150.07 89.74 151.15 89.74 159.42 89.74 178.69 89.74 179.21 89.74 179.23 89.74 536.48 89.74 536.48 97.02 179.59 97.02"/><polygon class="cls-3" points="119.8 111.01 119.18 86.73 128.45 82.88 128.89 111.02 119.8 111.01"/><path class="cls-3" d="M110.83,151.86a55,55,0,1,1,0-110V57.6a39.27,39.27,0,1,0,39.25,39.24h15.76A55,55,0,0,1,110.83,151.86Z"/><path class="cls-1" d="M226.62,59.94a1,1,0,0,1,.49.71,1.15,1.15,0,0,1-.21.86.85.85,0,0,1-.63.35,1.33,1.33,0,0,1-.73-.14,11.66,11.66,0,0,0-2.85-1.36,10.47,10.47,0,0,0-3.27-.49,10.34,10.34,0,0,0-4,.75,9.33,9.33,0,0,0-3.2,2.16,10.21,10.21,0,0,0-2.11,3.34,12.38,12.38,0,0,0,0,8.54A9.85,9.85,0,0,0,212.32,78a9.41,9.41,0,0,0,3.19,2.13,10.89,10.89,0,0,0,7.15.24A12.08,12.08,0,0,0,225.5,79a1.17,1.17,0,0,1,.75-.15.89.89,0,0,1,.65.4,1,1,0,0,1,.23.82,1,1,0,0,1-.47.68,13.73,13.73,0,0,1-2.07,1,15.31,15.31,0,0,1-2.51.79,12.67,12.67,0,0,1-2.66.29,12.26,12.26,0,0,1-8.62-3.47,11.8,11.8,0,0,1-2.68-4,13.25,13.25,0,0,1-1-5.13,13,13,0,0,1,1-5,12.11,12.11,0,0,1,11.31-7.52,13,13,0,0,1,3.85.56A12.13,12.13,0,0,1,226.62,59.94Z"/><path class="cls-1" d="M253.38,70.35a14.25,14.25,0,0,1-.86,5,12,12,0,0,1-2.42,4A11,11,0,0,1,246.38,82a12.47,12.47,0,0,1-9.4,0,11,11,0,0,1-3.72-2.62,11.88,11.88,0,0,1-2.43-4,15.23,15.23,0,0,1,0-10.09,11.84,11.84,0,0,1,2.43-4A10.84,10.84,0,0,1,237,58.7a12.34,12.34,0,0,1,9.4,0,10.84,10.84,0,0,1,3.72,2.62,12,12,0,0,1,2.42,4A14.31,14.31,0,0,1,253.38,70.35Zm-2.24,0a11.88,11.88,0,0,0-1.2-5.47,9.26,9.26,0,0,0-3.34-3.69,9.24,9.24,0,0,0-13.18,3.69,12.95,12.95,0,0,0,0,10.93,9.07,9.07,0,0,0,3.35,3.69,9.22,9.22,0,0,0,13.17-3.69A11.87,11.87,0,0,0,251.14,70.35Z"/><path class="cls-1" d="M276.22,58.12a.91.91,0,0,1,.72.28,1,1,0,0,1,.26.7V81.46a1.06,1.06,0,0,1-.33.82,1.12,1.12,0,0,1-.75.29,1.53,1.53,0,0,1-.45-.08.81.81,0,0,1-.39-.27l-15.58-21,.59-.31V81.63a.9.9,0,0,1-.27.66.94.94,0,0,1-.7.28.92.92,0,0,1-1-.94V59.17a1,1,0,0,1,.31-.79,1.1,1.1,0,0,1,.7-.26,1.38,1.38,0,0,1,.46.09.79.79,0,0,1,.38.29L275.6,79.25l-.35.63V59.1a.91.91,0,0,1,.29-.7A1,1,0,0,1,276.22,58.12Z"/><path class="cls-1" d="M290.51,82.92a10.64,10.64,0,0,1-4.61-.84,12.8,12.8,0,0,1-3.74-2.62,1.26,1.26,0,0,1-.29-.35.84.84,0,0,1-.13-.48,1.07,1.07,0,0,1,.34-.77,1,1,0,0,1,.75-.35,1.06,1.06,0,0,1,.76.35,9.31,9.31,0,0,0,3.1,2.23,8.92,8.92,0,0,0,3.72.77,8,8,0,0,0,3-.52,4.85,4.85,0,0,0,2.08-1.5,3.61,3.61,0,0,0,.77-2.28,3.82,3.82,0,0,0-.87-2.6,6.63,6.63,0,0,0-2.31-1.64,25.33,25.33,0,0,0-3.18-1.17,26.33,26.33,0,0,1-2.72-1,10,10,0,0,1-2.31-1.33,5.39,5.39,0,0,1-1.57-1.94,6.36,6.36,0,0,1-.56-2.79,5.69,5.69,0,0,1,1-3.28,6.55,6.55,0,0,1,2.78-2.26,10.07,10.07,0,0,1,4.17-.82,11.33,11.33,0,0,1,4,.7,7,7,0,0,1,3,2.06,1.56,1.56,0,0,1,.52,1,1,1,0,0,1-.35.7,1,1,0,0,1-.77.35.81.81,0,0,1-.59-.24A6.2,6.2,0,0,0,295,61a7.59,7.59,0,0,0-2-.89,8.28,8.28,0,0,0-2.29-.32,8.08,8.08,0,0,0-2.95.51,4.78,4.78,0,0,0-2.06,1.45,3.53,3.53,0,0,0-.75,2.27,3.49,3.49,0,0,0,.84,2.41,6.26,6.26,0,0,0,2.2,1.55c.9.41,1.87.79,2.9,1.14s2,.6,2.88,1a10.37,10.37,0,0,1,2.44,1.34,5.81,5.81,0,0,1,1.68,2,6.83,6.83,0,0,1,.61,3.07,5.49,5.49,0,0,1-1,3.22,7.05,7.05,0,0,1-2.78,2.27A9.86,9.86,0,0,1,290.51,82.92Z"/><path class="cls-1" d="M302.35,60.11a1,1,0,0,1-.73-.28.92.92,0,0,1-.31-.73.9.9,0,0,1,.31-.7,1,1,0,0,1,.73-.28H319a1,1,0,0,1,.73.28.94.94,0,0,1,.32.73.88.88,0,0,1-.32.72,1.11,1.11,0,0,1-.73.26Zm8.32,22.46a1,1,0,0,1-1.09-1V59.27h2.17V81.53a1,1,0,0,1-.31.73A1,1,0,0,1,310.67,82.57Z"/><path class="cls-1" d="M325.69,82.57a1.2,1.2,0,0,1-.86-.31,1,1,0,0,1-.33-.73V59.17a1.08,1.08,0,0,1,1.05-1.05H335a7.3,7.3,0,0,1,3.56.86A6.35,6.35,0,0,1,341,61.33a6.6,6.6,0,0,1,.89,3.39,7.08,7.08,0,0,1-.56,2.83,6.32,6.32,0,0,1-1.57,2.19,6.73,6.73,0,0,1-2.27,1.31l-1.23-.39a5.26,5.26,0,0,1,4.21,2.78,6.41,6.41,0,0,1,.72,3,18,18,0,0,0,.16,2.34,3.68,3.68,0,0,0,.36,1.25,1.93,1.93,0,0,0,.63.67,1,1,0,0,1,.47.59.85.85,0,0,1-.08.73.9.9,0,0,1-.41.41,1.25,1.25,0,0,1-.54.12,1.32,1.32,0,0,1-.56-.14,4.22,4.22,0,0,1-1-.87,4.68,4.68,0,0,1-.84-1.75,12.25,12.25,0,0,1-.33-3.22,5,5,0,0,0-.44-2.23A3.51,3.51,0,0,0,337.51,73a4.4,4.4,0,0,0-1.5-.66,6.69,6.69,0,0,0-1.55-.19h-8.14l.38-.49v9.89a1.06,1.06,0,0,1-.28.73A.92.92,0,0,1,325.69,82.57Zm.63-12.36h8.76a4.76,4.76,0,0,0,2.24-.79A5,5,0,0,0,339,67.55a5.58,5.58,0,0,0,.65-2.76,4.44,4.44,0,0,0-1.34-3.3,4.84,4.84,0,0,0-3.51-1.31h-8.35l.24-.49v11Z"/><path class="cls-1" d="M365,58.12a1,1,0,0,1,.77.3,1,1,0,0,1,.28.75V73.63a9.18,9.18,0,0,1-1.22,4.68,9.32,9.32,0,0,1-3.29,3.34,8.87,8.87,0,0,1-4.64,1.24,9,9,0,0,1-4.67-1.24,9.35,9.35,0,0,1-3.3-3.34,9.18,9.18,0,0,1-1.22-4.68V59.17a1,1,0,0,1,.3-.75,1.1,1.1,0,0,1,.82-.3,1,1,0,0,1,.73.3,1,1,0,0,1,.32.75V73.63a6.93,6.93,0,0,0,1,3.63,7.33,7.33,0,0,0,2.56,2.57,6.73,6.73,0,0,0,3.5,1,6.81,6.81,0,0,0,3.56-1,7.35,7.35,0,0,0,2.57-2.57,6.93,6.93,0,0,0,1-3.63V59.17a1,1,0,0,1,.28-.75A.94.94,0,0,1,365,58.12Z"/><path class="cls-1" d="M390.49,59.94a1,1,0,0,1,.49.71,1.25,1.25,0,0,1-.21.86.88.88,0,0,1-.63.35,1.36,1.36,0,0,1-.74-.14,11.43,11.43,0,0,0-2.84-1.36,10.51,10.51,0,0,0-3.27-.49,10.34,10.34,0,0,0-4,.75,9.24,9.24,0,0,0-3.2,2.16A10,10,0,0,0,374,66.12a12.45,12.45,0,0,0,0,8.54A10,10,0,0,0,376.18,78a9.45,9.45,0,0,0,3.2,2.13,10.86,10.86,0,0,0,7.14.24A12.15,12.15,0,0,0,389.37,79a1.15,1.15,0,0,1,.75-.15.91.91,0,0,1,.65.4.94.94,0,0,1,.22.82,1,1,0,0,1-.47.68,13.59,13.59,0,0,1-2.06,1,15.31,15.31,0,0,1-2.51.79,12.67,12.67,0,0,1-2.66.29,12.09,12.09,0,0,1-4.71-.91,12.31,12.31,0,0,1-3.92-2.56,11.77,11.77,0,0,1-2.67-4,13.25,13.25,0,0,1-1-5.13,13,13,0,0,1,.94-5,12.14,12.14,0,0,1,11.32-7.52,12.93,12.93,0,0,1,3.84.56A12.06,12.06,0,0,1,390.49,59.94Z"/><path class="cls-1" d="M413.3,59.94a1,1,0,0,1,.49.71,1.25,1.25,0,0,1-.21.86.86.86,0,0,1-.63.35,1.36,1.36,0,0,1-.74-.14,11.43,11.43,0,0,0-2.84-1.36,10.47,10.47,0,0,0-3.27-.49,10.34,10.34,0,0,0-4,.75,9.33,9.33,0,0,0-3.2,2.16,10,10,0,0,0-2.11,3.34,12.45,12.45,0,0,0,0,8.54A10,10,0,0,0,399,78a9.45,9.45,0,0,0,3.2,2.13,10.86,10.86,0,0,0,7.14.24A12.15,12.15,0,0,0,412.18,79a1.15,1.15,0,0,1,.75-.15.91.91,0,0,1,.65.4.94.94,0,0,1,.22.82,1,1,0,0,1-.47.68,13.59,13.59,0,0,1-2.06,1,15.31,15.31,0,0,1-2.51.79,12.67,12.67,0,0,1-2.66.29,12.09,12.09,0,0,1-4.71-.91,12.31,12.31,0,0,1-3.92-2.56,11.77,11.77,0,0,1-2.67-4,14,14,0,0,1,0-10.15,12.14,12.14,0,0,1,11.32-7.52,12.93,12.93,0,0,1,3.84.56A12.06,12.06,0,0,1,413.3,59.94Z"/><path class="cls-1" d="M420.46,81.49a1.15,1.15,0,0,1-.37.77,1.05,1.05,0,0,1-.75.31,1,1,0,0,1-.79-.31,1.12,1.12,0,0,1-.29-.77V59.2a1,1,0,0,1,.31-.76,1.1,1.1,0,0,1,.81-.32,1.06,1.06,0,0,1,.75.32,1,1,0,0,1,.33.76Z"/><path class="cls-1" d="M448.79,70.35a14.25,14.25,0,0,1-.86,5,12,12,0,0,1-2.42,4A11,11,0,0,1,441.79,82a12.47,12.47,0,0,1-9.4,0,11,11,0,0,1-3.72-2.62,11.88,11.88,0,0,1-2.43-4,15.23,15.23,0,0,1,0-10.09,11.84,11.84,0,0,1,2.43-4,10.84,10.84,0,0,1,3.72-2.62,12.34,12.34,0,0,1,9.4,0,10.84,10.84,0,0,1,3.72,2.62,12,12,0,0,1,2.42,4A14.31,14.31,0,0,1,448.79,70.35Zm-2.24,0a11.88,11.88,0,0,0-1.2-5.47A9.26,9.26,0,0,0,442,61.19a9.24,9.24,0,0,0-13.18,3.69,12.95,12.95,0,0,0,0,10.93,9.07,9.07,0,0,0,3.35,3.69,9.22,9.22,0,0,0,13.17-3.69A11.87,11.87,0,0,0,446.55,70.35Z"/><path class="cls-1" d="M471.63,58.12a.91.91,0,0,1,.72.28,1,1,0,0,1,.26.7V81.46a1.06,1.06,0,0,1-.33.82,1.12,1.12,0,0,1-.75.29,1.53,1.53,0,0,1-.45-.08.81.81,0,0,1-.39-.27l-15.58-21,.6-.31V81.63a.91.91,0,0,1-.28.66.94.94,0,0,1-.7.28.92.92,0,0,1-1-.94V59.17a1,1,0,0,1,.31-.79,1.1,1.1,0,0,1,.7-.26,1.38,1.38,0,0,1,.46.09.79.79,0,0,1,.38.29L471,79.25l-.35.63V59.1a1,1,0,0,1,.29-.7A1,1,0,0,1,471.63,58.12Z"/><path class="cls-1" d="M480.23,58.12h12.82a1,1,0,0,1,.73.3,1,1,0,0,1,.32.75.93.93,0,0,1-.32.73,1,1,0,0,1-.73.28H481l.35-.59V69.4L481,69h10.48a1,1,0,0,1,.73.31,1,1,0,0,1,.31.74.93.93,0,0,1-.31.73,1,1,0,0,1-.73.28H481.07l.31-.35V80.72l-.17-.21h11.84a1.1,1.1,0,0,1,1.05,1,.93.93,0,0,1-.32.73,1,1,0,0,1-.73.28H480.23a1,1,0,0,1-.74-.31,1,1,0,0,1-.31-.73V59.17a1.08,1.08,0,0,1,1.05-1.05Z"/><path class="cls-1" d="M505.76,82.92a10.67,10.67,0,0,1-4.61-.84,12.8,12.8,0,0,1-3.74-2.62,1.26,1.26,0,0,1-.29-.35.92.92,0,0,1-.12-.48,1.09,1.09,0,0,1,.33-.77,1,1,0,0,1,.75-.35,1.1,1.1,0,0,1,.77.35,9.27,9.27,0,0,0,3.09,2.23,8.92,8.92,0,0,0,3.72.77,7.92,7.92,0,0,0,3-.52,4.85,4.85,0,0,0,2.08-1.5,3.55,3.55,0,0,0,.77-2.28,3.82,3.82,0,0,0-.87-2.6,6.63,6.63,0,0,0-2.31-1.64,25.33,25.33,0,0,0-3.18-1.17,26.33,26.33,0,0,1-2.72-1,10,10,0,0,1-2.31-1.33,5.39,5.39,0,0,1-1.57-1.94,6.36,6.36,0,0,1-.56-2.79,5.69,5.69,0,0,1,1-3.28,6.55,6.55,0,0,1,2.78-2.26,10.07,10.07,0,0,1,4.17-.82,11.33,11.33,0,0,1,4,.7,6.9,6.9,0,0,1,3,2.06,1.56,1.56,0,0,1,.52,1,1,1,0,0,1-.35.7,1,1,0,0,1-.77.35.81.81,0,0,1-.59-.24A6.2,6.2,0,0,0,510.2,61a7.59,7.59,0,0,0-2-.89,8.28,8.28,0,0,0-2.29-.32,8.08,8.08,0,0,0-2.95.51,4.78,4.78,0,0,0-2.06,1.45,3.53,3.53,0,0,0-.75,2.27,3.49,3.49,0,0,0,.84,2.41,6.26,6.26,0,0,0,2.2,1.55c.91.41,1.87.79,2.9,1.14s2,.6,2.88,1a10.37,10.37,0,0,1,2.44,1.34,5.81,5.81,0,0,1,1.68,2,6.83,6.83,0,0,1,.61,3.07,5.49,5.49,0,0,1-1,3.22,7.05,7.05,0,0,1-2.78,2.27A9.79,9.79,0,0,1,505.76,82.92Z"/><path class="cls-1" d="M260.47,126.88a10.79,10.79,0,0,1-4.61-.83,13.06,13.06,0,0,1-3.74-2.62,1.46,1.46,0,0,1-.3-.35,1,1,0,0,1-.12-.49,1.09,1.09,0,0,1,.33-.77,1.06,1.06,0,0,1,.76-.35,1.07,1.07,0,0,1,.76.35,9.49,9.49,0,0,0,3.1,2.24,9.07,9.07,0,0,0,3.72.76,8,8,0,0,0,3-.52,4.85,4.85,0,0,0,2.08-1.5,3.58,3.58,0,0,0,.77-2.27,3.85,3.85,0,0,0-.87-2.61,6.72,6.72,0,0,0-2.31-1.64,25.33,25.33,0,0,0-3.18-1.17,26.33,26.33,0,0,1-2.72-1,9.82,9.82,0,0,1-2.31-1.33,5.44,5.44,0,0,1-1.57-1.93,6.41,6.41,0,0,1-.56-2.8,5.69,5.69,0,0,1,1-3.28,6.55,6.55,0,0,1,2.78-2.26,10,10,0,0,1,4.17-.82,11.51,11.51,0,0,1,4,.7,6.93,6.93,0,0,1,3,2.06,1.58,1.58,0,0,1,.52,1,1,1,0,0,1-.35.7,1.07,1.07,0,0,1-.77.34.81.81,0,0,1-.59-.24,6.2,6.2,0,0,0-1.5-1.31,7.93,7.93,0,0,0-2-.89,8.33,8.33,0,0,0-2.29-.32,8.08,8.08,0,0,0-2.95.51,4.78,4.78,0,0,0-2.06,1.45,3.86,3.86,0,0,0,.08,4.68,6.45,6.45,0,0,0,2.21,1.56c.9.4,1.87.78,2.89,1.13a29.65,29.65,0,0,1,2.89,1,10,10,0,0,1,2.44,1.35,5.69,5.69,0,0,1,1.68,2,6.84,6.84,0,0,1,.61,3.08,5.46,5.46,0,0,1-1,3.21,7,7,0,0,1-2.78,2.27A9.86,9.86,0,0,1,260.47,126.88Z"/><path class="cls-1" d="M275.56,125.45a1.09,1.09,0,0,1-.37.77,1.06,1.06,0,0,1-.75.32,1,1,0,0,1-.78-.32,1.06,1.06,0,0,1-.3-.77V103.17a1,1,0,0,1,.31-.77,1.1,1.1,0,0,1,.81-.32,1.06,1.06,0,0,1,.75.32,1,1,0,0,1,.33.77Z"/><path class="cls-1" d="M295.61,124.47a1,1,0,0,1,.74.3,1,1,0,0,1,.31.72,1,1,0,0,1-.31.75,1,1,0,0,1-.74.3H283.14a1,1,0,0,1-.75-.32,1,1,0,0,1-.3-.73V103.13a1,1,0,0,1,.32-.73,1.08,1.08,0,0,1,.8-.32,1.06,1.06,0,0,1,.75.32,1,1,0,0,1,.33.73v21.94l-.66-.6Z"/><path class="cls-1" d="M316.61,102.05a1.08,1.08,0,0,1,.78.28.91.91,0,0,1,.3.7,1.52,1.52,0,0,1-.11.52l-9.32,22.29a1.3,1.3,0,0,1-.46.52,1,1,0,0,1-.55.18,1.11,1.11,0,0,1-.6-.18.88.88,0,0,1-.38-.49L297,103.62a1.37,1.37,0,0,1-.07-.24,1.08,1.08,0,0,1,0-.32.9.9,0,0,1,.33-.73,1,1,0,0,1,.68-.28,1.07,1.07,0,0,1,1.05.77l8.73,20.89H307l8.59-21A1.07,1.07,0,0,1,316.61,102.05Z"/><path class="cls-1" d="M329.15,104.77l-8.49,21.1a1.14,1.14,0,0,1-.39.53,1,1,0,0,1-.55.17,1,1,0,0,1-.74-.26,1.13,1.13,0,0,1-.28-.65.93.93,0,0,1,0-.42L328,102.68a1.11,1.11,0,0,1,.44-.54A1.09,1.09,0,0,1,329,102a1,1,0,0,1,.61.19,1.27,1.27,0,0,1,.4.51l9.19,22.46a1.54,1.54,0,0,1,.07.42.94.94,0,0,1-.32.75,1.12,1.12,0,0,1-.73.26,1,1,0,0,1-.61-.19,1.19,1.19,0,0,1-.4-.51l-8.7-21.24Zm-6.47,14.71.88-2.06h10.83l.42,2.06Z"/><path class="cls-1" d="M363.42,102.08a6.37,6.37,0,0,1,4.59,1.59,5.87,5.87,0,0,1,1.66,4.42,6.47,6.47,0,0,1-.63,2.8,5.25,5.25,0,0,1-1.85,2.14,6,6,0,0,1-3,.93l-.14-.7a8.71,8.71,0,0,1,2.53.37,6.07,6.07,0,0,1,2.22,1.17,5.82,5.82,0,0,1,1.57,2,6.45,6.45,0,0,1,.59,2.91,7.28,7.28,0,0,1-.61,3.13,5.52,5.52,0,0,1-1.64,2.11,6.65,6.65,0,0,1-2.36,1.19,9.69,9.69,0,0,1-2.76.39h-9.39a1,1,0,0,1-.74-.32,1,1,0,0,1-.31-.73V103.13a1,1,0,0,1,.31-.73,1,1,0,0,1,.74-.32Zm-.28,2.06h-8.21l.42-.62v9.88l-.39-.52h8.18a4.19,4.19,0,0,0,4.29-4.61,4.06,4.06,0,0,0-1.12-3A4.33,4.33,0,0,0,363.14,104.14Zm.24,10.83h-8.21l.18-.21v10l-.21-.32h8.31a6,6,0,0,0,3.74-1.13,4.25,4.25,0,0,0,1.5-3.62,4.77,4.77,0,0,0-.73-2.79,4.06,4.06,0,0,0-2-1.5A7.56,7.56,0,0,0,363.38,115Z"/><path class="cls-1" d="M384,104.77l-8.48,21.1a1.29,1.29,0,0,1-.39.53,1.09,1.09,0,0,1-1.29-.09,1.07,1.07,0,0,1-.28-.65,1.06,1.06,0,0,1,0-.42l9.23-22.56a1.1,1.1,0,0,1,.43-.54,1.13,1.13,0,0,1,.61-.16,1,1,0,0,1,.62.19,1.36,1.36,0,0,1,.4.51l9.18,22.46a1.23,1.23,0,0,1,.07.42.93.93,0,0,1-.31.75,1.12,1.12,0,0,1-.73.26,1,1,0,0,1-.61-.19,1.29,1.29,0,0,1-.41-.51l-8.69-21.24Zm-6.46,14.71.87-2.06h10.83l.42,2.06Z"/><path class="cls-1" d="M399.64,126.54a1.2,1.2,0,0,1-.86-.32,1,1,0,0,1-.33-.73V103.13a1.08,1.08,0,0,1,1.05-1h9.43a7.3,7.3,0,0,1,3.56.86A6.37,6.37,0,0,1,415,105.3a6.55,6.55,0,0,1,.89,3.39,7.06,7.06,0,0,1-.56,2.82,6.11,6.11,0,0,1-1.57,2.19,6.73,6.73,0,0,1-2.27,1.31l-1.23-.39a5.26,5.26,0,0,1,4.21,2.78,6.29,6.29,0,0,1,.72,3,18,18,0,0,0,.16,2.34,3.68,3.68,0,0,0,.36,1.26,1.82,1.82,0,0,0,.63.66,1.06,1.06,0,0,1,.47.59,1,1,0,0,1-.49,1.14,1.25,1.25,0,0,1-.54.12,1.32,1.32,0,0,1-.56-.14,4.22,4.22,0,0,1-1-.87,4.68,4.68,0,0,1-.84-1.75,12.22,12.22,0,0,1-.33-3.21,5,5,0,0,0-.44-2.24,3.4,3.4,0,0,0-1.12-1.34,4.24,4.24,0,0,0-1.5-.67,7.28,7.28,0,0,0-1.55-.19h-8.14l.38-.49v9.89a1,1,0,0,1-.28.73A.93.93,0,0,1,399.64,126.54Zm.63-12.37H409a4.77,4.77,0,0,0,2.23-.79,5,5,0,0,0,1.69-1.87,5.56,5.56,0,0,0,.65-2.75,4.46,4.46,0,0,0-1.34-3.31,4.84,4.84,0,0,0-3.51-1.31h-8.35l.24-.48v11Z"/><path class="cls-1" d="M443.3,114.31a14.35,14.35,0,0,1-.85,5,11.94,11.94,0,0,1-2.43,4A11,11,0,0,1,436.3,126a12.47,12.47,0,0,1-9.4,0,11,11,0,0,1-3.72-2.62,11.94,11.94,0,0,1-2.43-4,15.43,15.43,0,0,1,0-10.1,11.94,11.94,0,0,1,2.43-4,11,11,0,0,1,3.72-2.62,12.34,12.34,0,0,1,9.4,0,11,11,0,0,1,3.72,2.62,11.94,11.94,0,0,1,2.43,4A14.35,14.35,0,0,1,443.3,114.31Zm-2.23,0a11.79,11.79,0,0,0-1.21-5.47,9.25,9.25,0,0,0-16.52,0,13,13,0,0,0,0,10.94,9.23,9.23,0,0,0,16.52,0A11.82,11.82,0,0,0,441.07,114.31Z"/><path class="cls-1" d="M466.15,102.08a.94.94,0,0,1,.71.28,1,1,0,0,1,.27.7v22.36a1,1,0,0,1-.34.82,1.08,1.08,0,0,1-.75.3,1.29,1.29,0,0,1-.45-.09.89.89,0,0,1-.38-.26l-15.58-21,.59-.31v20.71a.91.91,0,0,1-.28.67,1,1,0,0,1-.7.28.94.94,0,0,1-1-1V103.13a1,1,0,0,1,.32-.78,1,1,0,0,1,.7-.27,1.29,1.29,0,0,1,.45.09.76.76,0,0,1,.38.3l15.41,20.75-.35.63V103.06a.92.92,0,0,1,.3-.7A1,1,0,0,1,466.15,102.08Z"/><path class="cls-3" d="M159.65,90.24h-9V56.73h9Zm-8-1h7V57.73h-7Z"/><rect class="cls-3" x="151.15" y="85.1" width="8" height="1"/><rect class="cls-3" x="151.15" y="81.11" width="8" height="1"/><rect class="cls-3" x="151.15" y="77.06" width="8" height="1"/><rect class="cls-3" x="151.53" y="68.95" width="8" height="1"/><rect class="cls-3" x="151.63" y="64.85" width="8" height="1"/><rect class="cls-3" x="150.92" y="60.88" width="8" height="1"/><rect class="cls-3" x="151.39" y="72.97" width="7.7" height="1"/><polygon class="cls-3" points="163.53 57.73 159.15 57.73 159.15 56.73 162.53 56.73 162.53 40.98 163.53 40.98 163.53 57.73"/><path class="cls-3" d="M150.56,57.82a4.91,4.91,0,0,1-3.79-4V41.25h1v12.5a3.9,3.9,0,0,0,3,3.09Z"/><path class="cls-3" d="M179,41.56H120l.18-5.26H179Zm-58-1h57V37.3H121.17Z"/><rect class="cls-3" x="123.91" y="36.9" width="1" height="4.16"/><rect class="cls-3" x="127.78" y="37.01" width="1" height="4.16"/><rect class="cls-3" x="131.57" y="36.99" width="1" height="4.16"/><rect class="cls-3" x="135.3" y="36.99" width="1" height="4.16"/><rect class="cls-3" x="139.3" y="36.99" width="1" height="4.16"/><rect class="cls-3" x="143.25" y="36.99" width="1" height="4.16"/><rect class="cls-3" x="147.08" y="36.99" width="1" height="4.16"/><rect class="cls-3" x="162.53" y="36.99" width="1" height="4.16"/><rect class="cls-3" x="166.4" y="36.99" width="1" height="4.16"/><rect class="cls-3" x="170.2" y="36.99" width="1" height="4.16"/><rect class="cls-3" x="174.12" y="36.99" width="1" height="4.16"/><polygon class="cls-3" points="159.65 41.15 158.65 41.15 158.65 37.09 155.28 29.11 151.92 37.09 151.92 41.15 150.92 41.15 150.96 36.8 155.28 26.53 159.65 36.99 159.65 41.15"/><polygon class="cls-3" points="178.71 89.75 178.04 37.15 155.25 28.34 120.81 37.29 120.56 36.32 155.31 27.3 179.03 36.46 179.71 89.73 178.71 89.75"/><rect class="cls-3" x="120.04" y="41.06" width="1" height="10.1"/><path class="cls-3" d="M120.69,57.22a3.47,3.47,0,1,1,3.47-3.47A3.47,3.47,0,0,1,120.69,57.22Zm0-5.94a2.47,2.47,0,1,0,2.47,2.47A2.48,2.48,0,0,0,120.69,51.28Z"/><path class="cls-3" d="M120.05,61c-.74,0-1.41-1-2-2l.87-.49a4.58,4.58,0,0,0,1,1.44,8.5,8.5,0,0,0,.19-3.16l1-.08c.14,1.77.1,3.94-.9,4.24A.67.67,0,0,1,120.05,61Z"/><path class="cls-3" d="M159.42,53.71h-8.23v-9h8.23Zm-7.23-1h6.23v-7h-6.23Z"/><path class="cls-4" d="M564.65,207.29H0V0H564.65ZM1,206.29H563.65V1H1Z"/></g></g></svg>