<svg xmlns="http://www.w3.org/2000/svg" viewBox="0 0 194.21 223.29"><defs><style>.cls-1{fill:#212347;}.cls-2{fill:#1d1d1b;}.cls-3{fill:#68c8f0;}.cls-4{fill:none;}</style></defs><g id="Capa_2" data-name="Capa 2"><g id="LogoVertical"><path class="cls-1" d="M124.69,77.51A27.57,27.57,0,1,1,97.12,49.94v6.15a21.42,21.42,0,0,0-19,31.25h38.06a21.28,21.28,0,0,0,2.39-9.83Z"/><path class="cls-1" d="M72.71,119.26A48.23,48.23,0,0,0,80.83,123l-.45,4.14-.1.93a7.11,7.11,0,0,0,6.21,7.33l.25,0,6.44.7,1.38.15a7.09,7.09,0,0,0,7.06-5.88l.1-.95.43-3.9a46.73,46.73,0,0,0,7.87-1.48l1.88,3.56,0,0,.46.88a7.2,7.2,0,0,0,2,2.06,7.09,7.09,0,0,0,7.28.53l.15-.08,5.81-3.08,1.26-.66h0a7.12,7.12,0,0,0,2.52-8.79l-.44-.83-2-3.8a49.7,49.7,0,0,0,5.82-6.05l3.49,1.63.93.43a7,7,0,0,0,2.78.46,7.11,7.11,0,0,0,6.18-4.09l2.79-6v0l.58-1.25a7.25,7.25,0,0,0,.39-2.61,7.1,7.1,0,0,0-3.67-6l-.86-.4-3.2-1.49a48.23,48.23,0,0,0,1.27-11h-9.66A38.64,38.64,0,1,1,97.12,38.87V29.21a48.77,48.77,0,0,0-11.86,1.46l-1.21-2.42-.43-.87a7,7,0,0,0-1.9-2.1,7.11,7.11,0,0,0-7.32-.68l-.14.08-5.81,2.9-1.32.66A6.86,6.86,0,0,0,65.24,30a7.13,7.13,0,0,0-.84,7l.44.88,1.3,2.61A49.39,49.39,0,0,0,58.88,48l-3.44-1.53-.94-.41a7.1,7.1,0,0,0-8.84,3.68l-.06.13-2.66,6-.58,1.31a7,7,0,0,0-.34,2.6,7.08,7.08,0,0,0,3.79,5.9l.82.36,3.23,1.43a48.47,48.47,0,0,0-1,8.23L45,76.42h0l-1,.18a6.93,6.93,0,0,0-2.54,1.25,7.09,7.09,0,0,0-2.65,7L40,91.24l.26,1.41A7,7,0,0,0,41.42,95a7.07,7.07,0,0,0,6.43,2.73h0l1-.18,4-.74a48.51,48.51,0,0,0,4.37,7.9l-2.83,3h0l-.72.76a7,7,0,0,0-1.32,2.49,7.1,7.1,0,0,0,1.89,7.15l.1.09L59,122.62l1,1a7.11,7.11,0,0,0,9.17-.38l.65-.68,3-3.15"/><rect class="cls-2" x="71.1" y="86.84" width="0.26" height="1"/><polygon class="cls-3" points="84.96 87.33 84.96 70.28 91.47 67.57 91.47 87.33 84.96 87.33"/><polygon class="cls-3" points="93.75 87.33 93.86 64.87 100.38 62.16 100.38 87.33 93.75 87.33"/><polygon class="cls-3" points="103.42 87.33 102.99 70.28 109.5 67.57 109.81 87.34 103.42 87.33"/><path class="cls-3" d="M97.12,116a38.64,38.64,0,1,1,0-77.27V49.82a27.57,27.57,0,1,0,27.57,27.56h11.07A38.64,38.64,0,0,1,97.12,116Z"/><path class="cls-1" d="M30.54,156.63a.53.53,0,0,1,.24.35.57.57,0,0,1-.11.43.42.42,0,0,1-.31.17.63.63,0,0,1-.36-.07,5.77,5.77,0,0,0-1.42-.67,5,5,0,0,0-1.62-.25,5.17,5.17,0,0,0-2,.38A4.51,4.51,0,0,0,23.39,158a5.1,5.1,0,0,0-1.05,1.66,5.74,5.74,0,0,0-.37,2.11,5.86,5.86,0,0,0,.38,2.14,4.85,4.85,0,0,0,1.07,1.66A4.57,4.57,0,0,0,25,166.67,5,5,0,0,0,27,167a5,5,0,0,0,1.6-.25,5.93,5.93,0,0,0,1.42-.66.54.54,0,0,1,.37-.07.42.42,0,0,1,.32.19.47.47,0,0,1,.12.41.5.5,0,0,1-.24.34,6.06,6.06,0,0,1-1,.52,6.49,6.49,0,0,1-1.25.39,5.94,5.94,0,0,1-1.32.15,6.07,6.07,0,0,1-4.3-1.73,5.91,5.91,0,0,1-1.33-2,6.54,6.54,0,0,1-.47-2.55,6.36,6.36,0,0,1,.47-2.5,5.88,5.88,0,0,1,1.3-2,5.8,5.8,0,0,1,1.95-1.3,5.91,5.91,0,0,1,2.38-.47,6.78,6.78,0,0,1,1.91.27A6.26,6.26,0,0,1,30.54,156.63Z"/><path class="cls-1" d="M43.85,161.81a7,7,0,0,1-.43,2.51,5.71,5.71,0,0,1-1.21,2,5.39,5.39,0,0,1-1.85,1.3,6.16,6.16,0,0,1-4.67,0,5.49,5.49,0,0,1-1.85-1.3,5.86,5.86,0,0,1-1.21-2,7.57,7.57,0,0,1,0-5,6.07,6.07,0,0,1,1.21-2,5.49,5.49,0,0,1,1.85-1.3,6.16,6.16,0,0,1,4.67,0,5.39,5.39,0,0,1,1.85,1.3,5.9,5.9,0,0,1,1.21,2A7,7,0,0,1,43.85,161.81Zm-1.11,0a5.86,5.86,0,0,0-.6-2.72,4.71,4.71,0,0,0-6.56-1.84,4.49,4.49,0,0,0-1.66,1.84,6.47,6.47,0,0,0,0,5.44,4.53,4.53,0,0,0,1.66,1.83,4.6,4.6,0,0,0,6.56-1.83A5.92,5.92,0,0,0,42.74,161.81Z"/><path class="cls-1" d="M55.21,155.72a.47.47,0,0,1,.36.14.49.49,0,0,1,.13.35v11.12a.51.51,0,0,1-.16.41.55.55,0,0,1-.38.15.93.93,0,0,1-.22,0,.4.4,0,0,1-.19-.14L47,157.27l.3-.16v10.31a.45.45,0,0,1-.14.33.48.48,0,0,1-.35.14.45.45,0,0,1-.35-.14.44.44,0,0,1-.13-.33V156.24a.5.5,0,0,1,.15-.39.58.58,0,0,1,.35-.13.74.74,0,0,1,.23.05.38.38,0,0,1,.19.14l7.66,10.33-.17.31V156.21a.5.5,0,0,1,.48-.49Z"/><path class="cls-1" d="M62.32,168.06a5.42,5.42,0,0,1-2.29-.41,6.39,6.39,0,0,1-1.86-1.31.5.5,0,0,1-.15-.17.49.49,0,0,1-.06-.25.57.57,0,0,1,.17-.38.51.51,0,0,1,.37-.17.53.53,0,0,1,.38.17,4.58,4.58,0,0,0,1.54,1.11,4.42,4.42,0,0,0,1.85.39,4.08,4.08,0,0,0,1.49-.26,2.51,2.51,0,0,0,1-.75,1.74,1.74,0,0,0,.38-1.13,1.92,1.92,0,0,0-.43-1.3,3.21,3.21,0,0,0-1.15-.81,11.13,11.13,0,0,0-1.58-.58,13.59,13.59,0,0,1-1.36-.48,5.08,5.08,0,0,1-1.14-.66,2.62,2.62,0,0,1-.78-1,3.08,3.08,0,0,1-.28-1.39,2.84,2.84,0,0,1,.48-1.63A3.25,3.25,0,0,1,60.32,156a4.93,4.93,0,0,1,2.07-.41,5.77,5.77,0,0,1,2,.35,3.4,3.4,0,0,1,1.5,1,.83.83,0,0,1,.26.51.5.5,0,0,1-.17.34.54.54,0,0,1-.39.18.4.4,0,0,1-.29-.12,3.23,3.23,0,0,0-.75-.66,3.94,3.94,0,0,0-1-.44,4.24,4.24,0,0,0-1.14-.16,4,4,0,0,0-1.47.26,2.26,2.26,0,0,0-1,.72,1.9,1.9,0,0,0,0,2.33,3.14,3.14,0,0,0,1.1.77c.45.2.93.39,1.44.56a14.09,14.09,0,0,1,1.43.48,5.27,5.27,0,0,1,1.22.67,2.82,2.82,0,0,1,.83,1,3.34,3.34,0,0,1,.31,1.53,2.7,2.7,0,0,1-.51,1.6,3.46,3.46,0,0,1-1.38,1.13A4.85,4.85,0,0,1,62.32,168.06Z"/><path class="cls-1" d="M68.21,156.71a.5.5,0,0,1-.36-.14.47.47,0,0,1-.16-.36.48.48,0,0,1,.16-.35.54.54,0,0,1,.36-.14h8.28a.52.52,0,0,1,.36.14.47.47,0,0,1,.16.37.41.41,0,0,1-.16.35.52.52,0,0,1-.36.13Zm4.14,11.18a.5.5,0,0,1-.39-.16.49.49,0,0,1-.15-.36V156.3h1.08v11.07a.46.46,0,0,1-.16.36A.49.49,0,0,1,72.35,167.89Z"/><path class="cls-1" d="M79.82,167.89a.57.57,0,0,1-.42-.16.48.48,0,0,1-.17-.36V156.24a.55.55,0,0,1,.52-.52h4.7a3.68,3.68,0,0,1,1.77.43,3.15,3.15,0,0,1,1.23,1.17,3.3,3.3,0,0,1,.44,1.69,3.62,3.62,0,0,1-.28,1.41,3.16,3.16,0,0,1-.78,1.08,3.21,3.21,0,0,1-1.13.65l-.61-.19a2.62,2.62,0,0,1,2.09,1.38,3.15,3.15,0,0,1,.36,1.49,9.65,9.65,0,0,0,.08,1.16,1.84,1.84,0,0,0,.18.63,1,1,0,0,0,.31.33.51.51,0,0,1,.24.3.42.42,0,0,1,0,.36.48.48,0,0,1-.2.2.66.66,0,0,1-.27.06.55.55,0,0,1-.28-.07,2.09,2.09,0,0,1-.5-.43,2.35,2.35,0,0,1-.41-.87,6,6,0,0,1-.17-1.6,2.41,2.41,0,0,0-.22-1.11,1.69,1.69,0,0,0-.55-.67,2.1,2.1,0,0,0-.75-.33,3.07,3.07,0,0,0-.77-.1h-4l.19-.24v4.92a.52.52,0,0,1-.14.36A.46.46,0,0,1,79.82,167.89Zm.32-6.15H84.5a2.55,2.55,0,0,0,1.11-.39,2.52,2.52,0,0,0,.84-.93,2.82,2.82,0,0,0,.33-1.38,2.21,2.21,0,0,0-.67-1.64,2.43,2.43,0,0,0-1.75-.65H80.21l.12-.25V162Z"/><path class="cls-1" d="M99.39,155.72a.51.51,0,0,1,.39.15.53.53,0,0,1,.14.37v7.2a4.6,4.6,0,0,1-.61,2.33,4.66,4.66,0,0,1-1.64,1.66,4.38,4.38,0,0,1-2.31.61,4.44,4.44,0,0,1-2.32-.61,4.58,4.58,0,0,1-1.64-1.66,4.5,4.5,0,0,1-.61-2.33v-7.2a.5.5,0,0,1,.15-.37.54.54,0,0,1,.41-.15.49.49,0,0,1,.36.15.47.47,0,0,1,.16.37v7.2a3.47,3.47,0,0,0,.48,1.81,3.59,3.59,0,0,0,1.27,1.27,3.45,3.45,0,0,0,3.51,0,3.54,3.54,0,0,0,1.28-1.27,3.47,3.47,0,0,0,.48-1.81v-7.2a.53.53,0,0,1,.14-.37A.46.46,0,0,1,99.39,155.72Z"/><path class="cls-1" d="M112.06,156.63a.54.54,0,0,1,.25.35.62.62,0,0,1-.11.43.42.42,0,0,1-.31.17.68.68,0,0,1-.37-.07,5.7,5.7,0,0,0-1.41-.67,5.11,5.11,0,0,0-1.63-.25,5.16,5.16,0,0,0-2,.38,4.42,4.42,0,0,0-1.59,1.07,5.1,5.1,0,0,0-1,1.66,5.74,5.74,0,0,0-.37,2.11,5.66,5.66,0,0,0,.38,2.14,4.7,4.7,0,0,0,1.07,1.66,4.4,4.4,0,0,0,1.59,1.06,5.29,5.29,0,0,0,3.55.12,6.12,6.12,0,0,0,1.42-.66.53.53,0,0,1,.37-.07.43.43,0,0,1,.32.19.49.49,0,0,1-.12.75,6.06,6.06,0,0,1-1,.52,6.59,6.59,0,0,1-1.26.39,5.94,5.94,0,0,1-1.32.15,6.1,6.1,0,0,1-2.34-.45,6.17,6.17,0,0,1-2-1.28,5.76,5.76,0,0,1-1.33-2,6.95,6.95,0,0,1,0-5.05,6.06,6.06,0,0,1,1.31-2,5.86,5.86,0,0,1,1.94-1.3,6,6,0,0,1,2.38-.47,6.73,6.73,0,0,1,1.91.27A6,6,0,0,1,112.06,156.63Z"/><path class="cls-1" d="M123.41,156.63a.54.54,0,0,1,.25.35.62.62,0,0,1-.11.43.42.42,0,0,1-.31.17.68.68,0,0,1-.37-.07,5.7,5.7,0,0,0-1.41-.67,5.11,5.11,0,0,0-1.63-.25,5.16,5.16,0,0,0-2,.38,4.42,4.42,0,0,0-1.59,1.07,5.1,5.1,0,0,0-1,1.66,5.74,5.74,0,0,0-.38,2.11,5.66,5.66,0,0,0,.39,2.14,4.82,4.82,0,0,0,1.06,1.66,4.52,4.52,0,0,0,1.6,1.06,5.29,5.29,0,0,0,3.55.12,6.12,6.12,0,0,0,1.42-.66.53.53,0,0,1,.37-.07.43.43,0,0,1,.32.19.46.46,0,0,1,.11.41.48.48,0,0,1-.23.34,5.81,5.81,0,0,1-1,.52,6.28,6.28,0,0,1-1.25.39,5.94,5.94,0,0,1-1.32.15,6.1,6.1,0,0,1-2.34-.45,6.17,6.17,0,0,1-1.95-1.28,5.76,5.76,0,0,1-1.33-2,6.95,6.95,0,0,1,0-5.05,5.93,5.93,0,0,1,3.25-3.27,6,6,0,0,1,2.38-.47,6.73,6.73,0,0,1,1.91.27A6.12,6.12,0,0,1,123.41,156.63Z"/><path class="cls-1" d="M127,167.35a.55.55,0,0,1-.18.38.53.53,0,0,1-.76,0,.52.52,0,0,1-.15-.38V156.26a.49.49,0,0,1,.16-.38.54.54,0,0,1,.77,0,.49.49,0,0,1,.16.38Z"/><path class="cls-1" d="M141.07,161.81a7,7,0,0,1-.43,2.51,5.84,5.84,0,0,1-1.2,2,5.53,5.53,0,0,1-1.86,1.3,6.16,6.16,0,0,1-4.67,0,5.49,5.49,0,0,1-1.85-1.3,5.86,5.86,0,0,1-1.21-2,7.57,7.57,0,0,1,0-5,6.07,6.07,0,0,1,1.21-2,5.49,5.49,0,0,1,1.85-1.3,6.16,6.16,0,0,1,4.67,0,5.53,5.53,0,0,1,1.86,1.3,6,6,0,0,1,1.2,2A7,7,0,0,1,141.07,161.81Zm-1.11,0a5.86,5.86,0,0,0-.6-2.72,4.69,4.69,0,0,0-6.55-1.84,4.45,4.45,0,0,0-1.67,1.84,6.47,6.47,0,0,0,0,5.44,4.48,4.48,0,0,0,1.67,1.83,4.86,4.86,0,0,0,4.89,0,4.6,4.6,0,0,0,1.66-1.83A5.92,5.92,0,0,0,140,161.81Z"/><path class="cls-1" d="M152.44,155.72a.45.45,0,0,1,.35.14.49.49,0,0,1,.13.35v11.12a.51.51,0,0,1-.16.41.55.55,0,0,1-.38.15.93.93,0,0,1-.22,0,.4.4,0,0,1-.19-.14l-7.76-10.44.3-.16v10.31a.45.45,0,0,1-.14.33.48.48,0,0,1-.35.14.45.45,0,0,1-.35-.14.44.44,0,0,1-.13-.33V156.24a.5.5,0,0,1,.15-.39.58.58,0,0,1,.35-.13.68.68,0,0,1,.23.05.38.38,0,0,1,.19.14l7.66,10.33-.17.31V156.21a.47.47,0,0,1,.15-.35A.48.48,0,0,1,152.44,155.72Z"/><path class="cls-1" d="M156.71,155.72h6.38a.49.49,0,0,1,.36.15.47.47,0,0,1,.16.37.44.44,0,0,1-.16.37.52.52,0,0,1-.36.14h-6l.17-.3v4.89l-.19-.23h5.22a.55.55,0,0,1,.52.52.47.47,0,0,1-.16.37.52.52,0,0,1-.36.14h-5.18l.15-.18v5l-.08-.11h5.89a.5.5,0,0,1,.36.16.48.48,0,0,1,.16.36.44.44,0,0,1-.16.37.52.52,0,0,1-.36.14h-6.38a.55.55,0,0,1-.52-.52V156.24a.48.48,0,0,1,.16-.36A.5.5,0,0,1,156.71,155.72Z"/><path class="cls-1" d="M169.42,168.06a5.44,5.44,0,0,1-2.3-.41,6.39,6.39,0,0,1-1.86-1.31.5.5,0,0,1-.15-.17.49.49,0,0,1-.06-.25.57.57,0,0,1,.17-.38.51.51,0,0,1,.37-.17.53.53,0,0,1,.38.17,4.68,4.68,0,0,0,1.54,1.11,4.42,4.42,0,0,0,1.85.39,4.08,4.08,0,0,0,1.49-.26,2.51,2.51,0,0,0,1-.75,1.74,1.74,0,0,0,.38-1.13,1.92,1.92,0,0,0-.43-1.3,3.21,3.21,0,0,0-1.15-.81,11.13,11.13,0,0,0-1.58-.58,12.58,12.58,0,0,1-1.35-.48,5.15,5.15,0,0,1-1.15-.66,2.62,2.62,0,0,1-.78-1,3.08,3.08,0,0,1-.28-1.39,2.78,2.78,0,0,1,.49-1.63,3.16,3.16,0,0,1,1.38-1.12,5,5,0,0,1,2.07-.41,5.73,5.73,0,0,1,2,.35,3.4,3.4,0,0,1,1.5,1,.83.83,0,0,1,.26.51.5.5,0,0,1-.17.34.54.54,0,0,1-.38.18.41.41,0,0,1-.3-.12,3.23,3.23,0,0,0-.75-.66,3.94,3.94,0,0,0-1-.44,4.24,4.24,0,0,0-1.14-.16,4,4,0,0,0-1.46.26,2.24,2.24,0,0,0-1,.72,1.75,1.75,0,0,0-.37,1.13,1.8,1.8,0,0,0,.41,1.2,3.23,3.23,0,0,0,1.1.77c.45.2.93.39,1.44.56a14.09,14.09,0,0,1,1.43.48,5.27,5.27,0,0,1,1.22.67,2.85,2.85,0,0,1,.84,1,3.48,3.48,0,0,1,.3,1.53,2.76,2.76,0,0,1-.5,1.6,3.56,3.56,0,0,1-1.39,1.13A4.84,4.84,0,0,1,169.42,168.06Z"/><path class="cls-1" d="M47.12,183.18a5.42,5.42,0,0,1-2.29-.42,6.17,6.17,0,0,1-1.86-1.3.5.5,0,0,1-.15-.17.49.49,0,0,1-.06-.25.56.56,0,0,1,.54-.55.55.55,0,0,1,.38.17,4.49,4.49,0,0,0,1.54,1.11,4.42,4.42,0,0,0,1.85.39,4,4,0,0,0,1.48-.26,2.54,2.54,0,0,0,1-.75A1.81,1.81,0,0,0,50,180a1.91,1.91,0,0,0-.43-1.3,3.3,3.3,0,0,0-1.15-.81,13.08,13.08,0,0,0-1.58-.59,10.86,10.86,0,0,1-1.36-.47,4.87,4.87,0,0,1-1.14-.66,2.75,2.75,0,0,1-.79-1,3.22,3.22,0,0,1-.27-1.39,2.84,2.84,0,0,1,.48-1.63,3.28,3.28,0,0,1,1.38-1.12,4.86,4.86,0,0,1,2.08-.41,5.49,5.49,0,0,1,2,.35,3.49,3.49,0,0,1,1.51,1,.83.83,0,0,1,.26.51.48.48,0,0,1-.18.34.51.51,0,0,1-.38.18.38.38,0,0,1-.29-.12,3,3,0,0,0-.75-.66,3.75,3.75,0,0,0-1-.44,4.36,4.36,0,0,0-1.14-.16,4,4,0,0,0-1.47.26,2.26,2.26,0,0,0-1,.72,1.9,1.9,0,0,0,0,2.33,3.19,3.19,0,0,0,1.09.77c.46.2.94.39,1.45.56a15,15,0,0,1,1.43.48,5.1,5.1,0,0,1,1.22.67,2.82,2.82,0,0,1,.83,1,3.44,3.44,0,0,1,.31,1.53,2.7,2.7,0,0,1-.51,1.6,3.53,3.53,0,0,1-1.38,1.13A4.88,4.88,0,0,1,47.12,183.18Z"/><path class="cls-1" d="M54.63,182.47a.55.55,0,0,1-.18.38.52.52,0,0,1-.38.16.5.5,0,0,1-.39-.16.52.52,0,0,1-.15-.38V171.38a.53.53,0,0,1,.16-.38.52.52,0,0,1,.4-.16.57.57,0,0,1,.54.54Z"/><path class="cls-1" d="M64.6,182a.51.51,0,0,1,.37.15.5.5,0,0,1,.16.36.51.51,0,0,1-.16.37.51.51,0,0,1-.37.15H58.4a.47.47,0,0,1-.37-.16.49.49,0,0,1-.15-.36V171.36A.46.46,0,0,1,58,171a.5.5,0,0,1,.39-.16.52.52,0,0,1,.38.16.46.46,0,0,1,.16.36v10.92l-.33-.3Z"/><path class="cls-1" d="M75.05,170.82a.56.56,0,0,1,.39.14.47.47,0,0,1,.15.35.85.85,0,0,1,0,.26L70.9,182.66a.66.66,0,0,1-.23.26.51.51,0,0,1-.28.09.52.52,0,0,1-.29-.09.41.41,0,0,1-.19-.24l-4.63-11.07,0-.12a.78.78,0,0,1,0-.16.48.48,0,0,1,.17-.37.53.53,0,0,1,.33-.14.55.55,0,0,1,.53.39L70.6,181.6h-.31l4.27-10.43A.55.55,0,0,1,75.05,170.82Z"/><path class="cls-1" d="M81.29,172.18l-4.22,10.5a.65.65,0,0,1-.19.26.49.49,0,0,1-.28.09.5.5,0,0,1-.37-.13.55.55,0,0,1-.14-.33.56.56,0,0,1,0-.21l4.59-11.22a.53.53,0,0,1,.52-.35.44.44,0,0,1,.3.1.5.5,0,0,1,.2.25l4.57,11.17a.52.52,0,0,1,0,.21.46.46,0,0,1-.16.38.57.57,0,0,1-.36.13.55.55,0,0,1-.31-.1.71.71,0,0,1-.2-.25L81,172.11Zm-3.22,7.32.44-1H83.9l.2,1Z"/><path class="cls-1" d="M98.34,170.84a3.19,3.19,0,0,1,2.28.79,2.91,2.91,0,0,1,.83,2.2,3.32,3.32,0,0,1-.31,1.39,2.6,2.6,0,0,1-.93,1.07,2.93,2.93,0,0,1-1.51.46l-.07-.35a4.14,4.14,0,0,1,1.26.19,3,3,0,0,1,1.89,1.58,3.21,3.21,0,0,1,.29,1.45,3.66,3.66,0,0,1-.3,1.55,2.83,2.83,0,0,1-.82,1.06,3.58,3.58,0,0,1-1.17.59,5.21,5.21,0,0,1-1.37.19H93.73a.55.55,0,0,1-.52-.52V171.36a.55.55,0,0,1,.52-.52Zm-.14,1H94.11l.21-.32v4.92l-.19-.26H98.2a2.08,2.08,0,0,0,2.14-2.29,2,2,0,0,0-.56-1.5A2.14,2.14,0,0,0,98.2,171.87Zm.12,5.39H94.24l.08-.11v5l-.1-.16h4.14a3,3,0,0,0,1.85-.56,2.12,2.12,0,0,0,.75-1.8,2.41,2.41,0,0,0-.36-1.39,2,2,0,0,0-1-.75A3.7,3.7,0,0,0,98.32,177.26Z"/><path class="cls-1" d="M108.59,172.18l-4.22,10.5a.65.65,0,0,1-.19.26.47.47,0,0,1-.28.09.52.52,0,0,1-.37-.13.62.62,0,0,1-.14-.33.56.56,0,0,1,0-.21L108,171.14a.56.56,0,0,1,.22-.27.58.58,0,0,1,.3-.08.48.48,0,0,1,.31.1.63.63,0,0,1,.2.25l4.57,11.17a.76.76,0,0,1,0,.21.46.46,0,0,1-.16.38.57.57,0,0,1-.36.13.49.49,0,0,1-.3-.1.55.55,0,0,1-.2-.25l-4.33-10.57Zm-3.21,7.32.43-1h5.39l.21,1Z"/><path class="cls-1" d="M116.36,183a.59.59,0,0,1-.43-.16.46.46,0,0,1-.16-.36V171.36a.49.49,0,0,1,.15-.36.5.5,0,0,1,.37-.16H121a3.57,3.57,0,0,1,1.77.43,3.08,3.08,0,0,1,1.23,1.17,3.21,3.21,0,0,1,.44,1.69,3.53,3.53,0,0,1-.27,1.4,3,3,0,0,1-.79,1.09,3.12,3.12,0,0,1-1.13.65l-.6-.19a2.66,2.66,0,0,1,2.09,1.38,3.25,3.25,0,0,1,.36,1.49,10.06,10.06,0,0,0,.07,1.16,1.62,1.62,0,0,0,.19.63.9.9,0,0,0,.31.33.55.55,0,0,1,.23.29.44.44,0,0,1,0,.37.43.43,0,0,1-.2.2.66.66,0,0,1-.27.06.61.61,0,0,1-.28-.07,2.06,2.06,0,0,1-.49-.43,2.35,2.35,0,0,1-.42-.87A6.1,6.1,0,0,1,123,180a2.55,2.55,0,0,0-.22-1.11,1.71,1.71,0,0,0-.56-.67,2,2,0,0,0-.74-.33,3.21,3.21,0,0,0-.78-.1h-4l.19-.24v4.92a.48.48,0,0,1-.14.36A.44.44,0,0,1,116.36,183Zm.31-6.15H121a2.5,2.5,0,0,0,2-1.33,2.86,2.86,0,0,0,.32-1.37,2.17,2.17,0,0,0-.67-1.64,2.36,2.36,0,0,0-1.74-.65h-4.16l.12-.25v5.48Z"/><path class="cls-1" d="M138.08,176.92a7.24,7.24,0,0,1-.42,2.52,5.86,5.86,0,0,1-1.21,2,5.49,5.49,0,0,1-1.85,1.3,5.78,5.78,0,0,1-2.34.46,5.85,5.85,0,0,1-2.34-.46,5.59,5.59,0,0,1-1.85-1.3,5.84,5.84,0,0,1-1.2-2,7.57,7.57,0,0,1,0-5,5.84,5.84,0,0,1,1.2-2,5.59,5.59,0,0,1,1.85-1.3,5.85,5.85,0,0,1,2.34-.46,5.78,5.78,0,0,1,2.34.46,5.49,5.49,0,0,1,1.85,1.3,5.86,5.86,0,0,1,1.21,2A7.22,7.22,0,0,1,138.08,176.92Zm-1.11,0a5.85,5.85,0,0,0-.6-2.71,4.43,4.43,0,0,0-4.11-2.5,4.46,4.46,0,0,0-4.11,2.5,5.85,5.85,0,0,0-.6,2.71,5.93,5.93,0,0,0,.6,2.73,4.6,4.6,0,0,0,8.22,0A5.93,5.93,0,0,0,137,176.92Z"/><path class="cls-1" d="M149.45,170.84a.49.49,0,0,1,.36.14.52.52,0,0,1,.13.35v11.12a.52.52,0,0,1-.17.41.53.53,0,0,1-.37.15.68.68,0,0,1-.23,0,.36.36,0,0,1-.19-.13l-7.75-10.44.3-.16v10.31a.45.45,0,0,1-.14.33.5.5,0,0,1-.35.14.46.46,0,0,1-.49-.47V171.36a.47.47,0,0,1,.16-.39.56.56,0,0,1,.35-.13.63.63,0,0,1,.22,0,.3.3,0,0,1,.19.14l7.67,10.33-.18.31V171.33a.45.45,0,0,1,.15-.35A.49.49,0,0,1,149.45,170.84Z"/><path class="cls-4" d="M193.71,223.29H.5a.5.5,0,0,1-.5-.5V.5A.5.5,0,0,1,.5,0H193.71a.5.5,0,0,1,.5.5V222.79A.5.5,0,0,1,193.71,223.29ZM1,222.29H193.21V1H1Z"/><path class="cls-3" d="M130.74,78.21H125a.51.51,0,0,1-.5-.5V53.08a.5.5,0,0,1,.5-.5h5.79a.5.5,0,0,1,.5.5V77.71A.51.51,0,0,1,130.74,78.21Zm-5.29-1h4.79V53.58h-4.79Z"/><rect class="cls-3" x="124.95" y="74.07" width="5.78" height="1"/><rect class="cls-3" x="124.95" y="71.05" width="5.78" height="1"/><rect class="cls-3" x="124.95" y="67.98" width="5.78" height="1"/><rect class="cls-3" x="125.23" y="61.84" width="5.79" height="1"/><rect class="cls-3" x="125.3" y="58.73" width="5.78" height="1"/><rect class="cls-3" x="124.79" y="55.73" width="5.79" height="1"/><rect class="cls-3" x="125.13" y="64.88" width="5.56" height="1"/><path class="cls-3" d="M133.54,53.58h-2.8v-1H133V40.77h1V53.08A.5.5,0,0,1,133.54,53.58Z"/><path class="cls-3" d="M124.5,53.64a3.75,3.75,0,0,1-2.85-3.13V41h1v9.47a2.76,2.76,0,0,0,2.06,2.22Z"/><path class="cls-3" d="M144.75,41.33H102.83a.51.51,0,0,1-.36-.15.54.54,0,0,1-.14-.36l.11-3.23a.5.5,0,0,1,.5-.48h41.81a.5.5,0,0,1,.5.5v3.22A.5.5,0,0,1,144.75,41.33Zm-41.4-1h40.9V38.11H103.42Z"/><rect class="cls-3" x="105.13" y="37.68" width="1" height="3.15"/><rect class="cls-3" x="107.93" y="37.77" width="1" height="3.15"/><rect class="cls-3" x="110.67" y="37.75" width="1" height="3.15"/><rect class="cls-3" x="113.36" y="37.75" width="1" height="3.15"/><rect class="cls-3" x="116.25" y="37.75" width="1" height="3.15"/><rect class="cls-3" x="119.11" y="37.75" width="1" height="3.15"/><rect class="cls-3" x="121.88" y="37.75" width="1" height="3.15"/><rect class="cls-3" x="133.04" y="37.75" width="1" height="3.15"/><rect class="cls-3" x="135.84" y="37.75" width="1" height="3.15"/><rect class="cls-3" x="138.59" y="37.75" width="1" height="3.15"/><rect class="cls-3" x="141.42" y="37.75" width="1" height="3.15"/><path class="cls-3" d="M131.24,40.91h-1V37.85l-2.3-5.7-2.29,5.7v3.06h-1V37.75a.58.58,0,0,1,0-.18l2.79-6.95a.52.52,0,0,1,.93,0l2.79,7a.39.39,0,0,1,0,.18Z"/><path class="cls-3" d="M144.74,77.71,144.26,38l-16.35-6.62-24.84,6.76-.26-1,25-6.8a.5.5,0,0,1,.32,0l16.81,6.81a.48.48,0,0,1,.31.46l.49,40.09Z"/><rect class="cls-3" x="102.33" y="40.83" width="1" height="7.65"/><path class="cls-3" d="M102.94,53.2a2.76,2.76,0,1,1,2.65-2.75A2.71,2.71,0,0,1,102.94,53.2Zm0-4.51a1.76,1.76,0,1,0,1.65,1.76A1.71,1.71,0,0,0,102.94,48.69Z"/><path class="cls-3" d="M102.47,56c-.6,0-1.09-.75-1.54-1.58l.88-.47a5.33,5.33,0,0,0,.57.89,8.21,8.21,0,0,0,.06-2.13l1-.08c.15,2-.1,3.15-.75,3.34Z"/><path class="cls-3" d="M130.58,50.54h-5.23a.5.5,0,0,1-.5-.5V44a.5.5,0,0,1,.5-.5h5.23a.5.5,0,0,1,.5.5V50A.51.51,0,0,1,130.58,50.54Zm-4.73-1h4.23V44.47h-4.23Z"/></g></g></svg>